2.6Hz3min_grf.mot
version=1
nRows=17
nColumns 19
inDegrees=yes
endheader
time	1_ground_force_vx	1_ground_force_vy	1_ground_force_vz	1_ground_force_px	1_ground_force_py	1_ground_force_pz	1_ground_torque_x	1_ground_torque_y	1_ground_torque_z	2_ground_force_vx	2_ground_force_vy	2_ground_force_vz	2_ground_force_px	2_ground_force_py	2_ground_force_pz	2_ground_torque_x	2_ground_torque_y	2_ground_torque_z
            2.502500	            5.797040	          345.663071	          -20.131043	           -0.308708	            0.006305	           -0.427617	           -0.002278	           -0.135810	            0.007909	           -2.733393	          266.028674	           17.562756	           -0.257681	            0.005781	           -0.761574	            0.001269	           -0.123493	           -0.008153
            2.503000	            5.202290	          350.886894	          -19.235885	           -0.309977	            0.006303	           -0.427238	           -0.003466	           -0.233778	            0.012816	           -0.546755	          270.272211	           17.530004	           -0.258168	            0.005779	           -0.761457	            0.000451	           -0.222942	           -0.014460
            2.503500	            5.247973	          357.374698	          -18.795469	           -0.310185	            0.006303	           -0.427255	           -0.001002	           -0.068214	            0.003588	            0.702906	          274.512137	           17.544578	           -0.258675	            0.005778	           -0.761684	           -0.000414	           -0.161613	           -0.010329
            2.504000	            6.528424	          364.048148	          -19.549606	           -0.310041	            0.006305	           -0.427632	            0.002814	            0.156902	           -0.008426	            1.102787	          280.589268	           17.941507	           -0.259117	            0.005777	           -0.761769	           -0.000525	           -0.133560	           -0.008540
            2.504500	            7.302879	          370.183820	          -21.038505	           -0.310343	            0.006306	           -0.427982	            0.004941	            0.250478	           -0.014235	            0.658706	          286.847435	           18.339451	           -0.258933	            0.005779	           -0.762158	           -0.000230	           -0.100029	           -0.006395
            2.505000	            7.570781	          377.584762	          -23.346147	           -0.310761	            0.006302	           -0.426999	            0.002968	            0.148007	           -0.009151	           -0.008950	          290.158047	           18.820838	           -0.259015	            0.005777	           -0.761744	            0.000004	           -0.114784	           -0.007445
            2.505500	            7.060641	          383.541720	          -25.245336	           -0.311009	            0.006302	           -0.427143	            0.000775	            0.042088	           -0.002770	           -0.407470	          296.784391	           19.313933	           -0.259117	            0.005778	           -0.761957	            0.000153	           -0.111553	           -0.007260
            2.506000	            5.544244	          391.296556	          -26.079607	           -0.310431	            0.006303	           -0.427238	           -0.001312	           -0.092599	            0.006172	            0.092051	          301.204807	           19.611051	           -0.259345	            0.005776	           -0.761825	           -0.000040	           -0.132075	           -0.008599
            2.506500	            3.937660	          398.328014	          -26.366470	           -0.311005	            0.006303	           -0.427293	           -0.001691	           -0.171039	            0.011322	            0.585570	          307.282718	           19.867156	           -0.259316	            0.005777	           -0.762145	           -0.000098	           -0.051505	           -0.003330
            2.507000	            2.973362	          406.439950	          -26.375154	           -0.311168	            0.006299	           -0.426255	           -0.001009	           -0.137924	            0.008950	            1.221654	          312.808486	           20.168157	           -0.259376	            0.005778	           -0.762387	           -0.000306	           -0.078226	           -0.005044
            2.507500	            2.878685	          413.473273	          -27.032619	           -0.311216	            0.006302	           -0.427043	           -0.000672	           -0.096490	            0.006308	            1.202483	          318.147973	           20.421852	           -0.259697	            0.005777	           -0.762520	           -0.000199	           -0.052645	           -0.003379
            2.508000	            3.606432	          421.232279	          -28.743727	           -0.311438	            0.006302	           -0.427169	           -0.000106	           -0.012323	            0.000841	            0.428622	          324.956100	           21.197332	           -0.259405	            0.005780	           -0.762856	           -0.000118	           -0.089139	           -0.005815
            2.508500	            3.873487	          429.535760	          -31.322644	           -0.311619	            0.006301	           -0.426812	           -0.000472	           -0.052362	            0.003818	           -1.133546	          329.550201	           22.340690	           -0.259435	            0.005779	           -0.762646	            0.000135	           -0.039253	           -0.002661
            2.509000	            3.179709	          438.196244	          -33.118072	           -0.311908	            0.006298	           -0.426079	           -0.000679	           -0.093513	            0.007068	           -2.323594	          334.882386	           23.439590	           -0.259668	            0.005780	           -0.763273	            0.000595	           -0.085793	           -0.006005
            2.509500	            1.338816	          446.317705	          -35.371533	           -0.311880	            0.006301	           -0.426760	           -0.000267	           -0.089051	            0.007057	           -3.518460	          341.505016	           24.167663	           -0.259375	            0.005781	           -0.763320	           -0.000030	            0.002874	            0.000203
            2.510000	           -1.415979	          455.695314	          -36.333343	           -0.311492	            0.006298	           -0.426119	            0.000625	           -0.201026	            0.016028	           -3.769140	          346.106365	           24.606542	           -0.259503	            0.005780	           -0.763170	            0.000045	           -0.004165	           -0.000296
            2.510500	           -3.069383	          463.088807	          -36.985390	           -0.312358	            0.006297	           -0.426038	            0.001706	           -0.257398	            0.020558	           -4.306215	          352.179717	           25.097726	           -0.259376	            0.005782	           -0.763375	           -0.001306	            0.106836	            0.007614
